<svg width="84" height="44" viewBox="0 0 84 44" fill="none" xmlns="http://www.w3.org/2000/svg">
<g filter="url(#filter0_f_201_32)">
<path d="M7.02413 27.5495C6.13668 27.5495 5.37805 27.2884 4.74824 26.766C4.11844 26.2728 3.60314 25.6199 3.20236 24.8074C2.80157 23.9949 2.50098 23.1534 2.30059 22.2829C2.1002 21.3834 2 20.5709 2 19.8455C2 19.7294 2.01431 19.5843 2.04294 19.4102C2.07157 19.2071 2.15745 19.1056 2.30059 19.1056C2.35784 19.1056 2.38647 19.1491 2.38647 19.2361C2.38647 19.4683 2.4151 19.7294 2.47235 20.0196C2.52961 20.2807 2.58686 20.5419 2.64412 20.803C2.78726 21.4704 3.01628 22.1378 3.33118 22.8052C3.67471 23.4726 4.11844 24.0239 4.66236 24.4592C5.20628 24.8945 5.86472 25.1121 6.63766 25.1121C7.32472 25.1121 7.94021 24.967 8.48414 24.6768C9.02806 24.3867 9.51473 23.9804 9.94414 23.4581C10.8602 22.3264 11.6618 20.9481 12.3489 19.3232C13.0645 17.6692 13.7087 15.9717 14.2812 14.2307C14.8538 12.4897 15.3547 10.9227 15.7842 9.52992C15.8128 9.44287 15.8844 9.22524 15.9989 8.87704C16.1134 8.49982 16.2279 8.13711 16.3424 7.7889C16.4569 7.41168 16.5142 7.19405 16.5142 7.13602C16.5428 6.61371 16.5714 6.12042 16.6 5.65615C16.6287 5.16286 16.8434 4.7276 17.2442 4.35038C16.2136 4.69859 15.1687 5.04679 14.1094 5.39499C13.0789 5.71418 12.0626 6.0769 11.0606 6.48313C10.4308 6.74429 9.87257 7.107 9.38591 7.57127C8.89924 8.03555 8.6559 8.6449 8.6559 9.39935C8.6559 9.97969 8.78473 10.5455 9.04238 11.0968C9.32865 11.6482 9.60061 12.185 9.85826 12.7073C10.1159 13.2296 10.2447 13.7809 10.2447 14.3613C10.2447 14.9416 10.03 15.4784 9.60061 15.9717C9.19983 16.465 8.69884 16.7116 8.09767 16.7116C7.98316 16.7116 7.81139 16.6826 7.58237 16.6246C7.35335 16.5666 7.23884 16.4795 7.23884 16.3634C7.23884 16.2764 7.28178 16.2329 7.36766 16.2329C7.39629 16.2329 7.43923 16.2619 7.49649 16.3199C7.55374 16.3489 7.62531 16.3634 7.71119 16.3634C8.05472 16.3634 8.32669 16.2038 8.52708 15.8847C8.7561 15.5365 8.92787 15.1592 9.04238 14.753C9.15689 14.3468 9.21414 14.0131 9.21414 13.7519C9.21414 13.0845 9.05669 12.4606 8.74179 11.8803C8.45551 11.2709 8.15492 10.6761 7.84002 10.0958C7.55374 9.51542 7.41061 8.92057 7.41061 8.31121C7.41061 7.52775 7.69688 6.90388 8.26943 6.43961C8.84198 5.97534 9.5863 5.61262 10.5024 5.35147C11.4185 5.0613 12.3775 4.82916 13.3794 4.65506C14.3814 4.48096 15.3261 4.30685 16.2136 4.13275C17.1297 3.92963 17.8453 3.66848 18.3606 3.34929C18.561 3.23323 18.833 2.98658 19.1765 2.60936C19.5201 2.20312 19.7491 2 19.8636 2C19.9495 2 19.9924 2.08705 19.9924 2.26115C19.9924 2.49329 19.9208 2.81248 19.7777 3.21872C19.6346 3.59594 19.4771 3.8716 19.3053 4.0457C18.9618 4.42292 18.6899 4.82916 18.4895 5.26442C18.2891 5.69967 18.0887 6.16395 17.8883 6.65724C17.602 7.38266 17.33 8.1226 17.0724 8.87704C16.8148 9.63148 16.5571 10.3859 16.2995 11.1404C15.641 12.9684 14.9969 14.811 14.3671 16.6681C13.7659 18.4962 13.0789 20.3098 12.3059 22.1088C12.0196 22.8052 11.6189 23.5742 11.1036 24.4157C10.6169 25.2572 10.03 25.9826 9.34296 26.5919C8.6559 27.2303 7.88296 27.5495 7.02413 27.5495Z" fill="white"/>
<path d="M17.1697 25.8955C17.1697 25.8085 17.1983 25.7214 17.2556 25.6344C17.3128 25.5473 17.3558 25.4748 17.3844 25.4168C17.4703 25.2136 17.5562 24.967 17.642 24.6768C17.7566 24.3867 17.914 24.053 18.1144 23.6757C18.3434 23.2405 18.5868 22.7037 18.8444 22.0653C19.1307 21.4269 19.4026 20.7885 19.6603 20.1502C19.9179 19.4828 20.1326 18.9605 20.3044 18.5832C20.3617 18.3801 20.4189 18.1915 20.4762 18.0174C20.5621 17.8433 20.6193 17.6692 20.6479 17.4951C20.6766 17.379 20.6909 17.234 20.6909 17.0598C20.6909 16.7697 20.6193 16.5375 20.4762 16.3634C20.333 16.1893 20.0611 16.1023 19.6603 16.1023C19.374 16.1023 19.0448 16.1748 18.6726 16.3199C18.3291 16.436 18.0142 16.5666 17.7279 16.7116C17.7279 16.6536 17.7422 16.5666 17.7709 16.4505C17.8281 16.3344 17.8854 16.2619 17.9426 16.2329C18.0571 16.1748 18.415 16.0443 19.0162 15.8411C19.6173 15.609 20.1756 15.3914 20.6909 15.1882C21.1203 15.0141 21.564 14.782 22.0221 14.4918C22.0793 14.4628 22.2081 14.3903 22.4085 14.2742C22.6375 14.1581 22.7807 14.1001 22.8379 14.1001H22.9238C23.1528 14.1001 23.2674 14.2597 23.2674 14.5789C23.2674 14.782 23.2244 15.0432 23.1385 15.3623C23.0813 15.6815 22.9811 16.0297 22.8379 16.407C22.5803 17.0453 22.294 17.6692 21.9791 18.2786C21.6928 18.8879 21.5211 19.2651 21.4638 19.4102L20.2615 22.1523C21.4638 20.9336 22.5803 19.7584 23.6109 18.6268C24.6415 17.4951 25.6291 16.3779 26.5738 15.2753C27.1464 14.6079 27.8621 14.2742 28.7209 14.2742C29.0644 14.2742 29.3507 14.3322 29.5797 14.4483C29.7229 14.5063 29.7515 14.5644 29.6656 14.6224C29.6084 14.6804 29.5225 14.724 29.408 14.753C29.0072 14.8691 28.5348 15.2608 27.9909 15.9282C27.447 16.5956 26.9317 17.3935 26.445 18.3221C25.987 19.2216 25.6291 20.0921 25.3715 20.9336C25.1425 21.6881 25.0279 22.3845 25.0279 23.0229C25.0279 23.4291 25.0995 23.7628 25.2427 24.0239C25.3858 24.2851 25.6148 24.4157 25.9297 24.4157C26.3878 24.4157 26.9889 24.1545 27.7333 23.6322C28.134 23.342 28.635 22.8778 29.2362 22.2394C29.8374 21.572 30.4242 20.8756 30.9968 20.1502C31.5693 19.4247 32.0274 18.8444 32.3709 18.4091C32.3709 18.4091 32.3995 18.4382 32.4568 18.4962C32.5141 18.6413 32.4997 18.7573 32.4139 18.8444C32.2135 19.1346 31.9558 19.4973 31.6409 19.9325C31.326 20.3678 30.9682 20.8321 30.5674 21.3254C30.1666 21.7896 29.7372 22.2684 29.2791 22.7617C28.8497 23.255 28.4203 23.6757 27.9909 24.0239C27.5901 24.3721 27.1464 24.6623 26.6597 24.8945C26.173 25.1266 25.7007 25.2427 25.2427 25.2427C24.5842 25.2427 24.1262 25.0395 23.8685 24.6333C23.6109 24.198 23.4821 23.6902 23.4821 23.1099C23.4821 22.6166 23.5393 22.1088 23.6538 21.5865C23.797 21.0642 23.9401 20.5709 24.0832 20.1066C24.2264 19.6714 24.4983 19.062 24.8991 18.2786C24.0117 19.004 23.1528 19.7439 22.3226 20.4984C21.5211 21.2528 20.877 22.0073 20.3903 22.7617C20.1899 23.0519 20.0038 23.4146 19.832 23.8498C19.6603 24.2851 19.5171 24.7058 19.4026 25.1121C19.374 25.1991 19.2595 25.2862 19.0591 25.3732C18.8873 25.4313 18.6869 25.4893 18.4579 25.5473C18.2575 25.5764 18.0428 25.6199 17.8138 25.6779C17.5848 25.7359 17.3701 25.823 17.1697 25.9391V25.8955Z" fill="white"/>
<path d="M23.6934 42C21.9471 42 20.5014 41.6663 19.3563 40.9989C18.1826 40.3605 17.5957 39.4465 17.5957 38.2568C17.5957 37.5024 17.882 36.6318 18.4546 35.6453C18.9985 34.6587 19.886 33.5851 21.1169 32.4244C22.4624 31.1476 24.1085 30.0595 26.0552 29.16C28.0019 28.2894 30.0344 27.6075 32.1528 27.1143C34.2999 26.65 36.3182 26.3888 38.2076 26.3308C38.2076 25.2862 38.1789 24.2416 38.1217 23.197C38.0931 22.1233 38.0501 21.0642 37.9929 20.0196C37.4776 21.0642 36.9623 21.9057 36.447 22.5441C35.7313 23.4436 34.9583 24.1545 34.1282 24.6768C33.3266 25.1991 32.568 25.5473 31.8523 25.7214C31.3942 25.8375 30.9505 25.8955 30.5211 25.8955C29.8913 25.8955 29.4475 25.7505 29.1899 25.4603C28.9323 25.1701 28.8034 24.7929 28.8034 24.3286C28.8034 23.6032 29.0181 22.8052 29.4475 21.9347C29.9056 21.0642 30.4925 20.2662 31.2081 19.5408C31.6948 19.0475 32.1672 18.6413 32.6252 18.3221C33.1119 18.0029 33.6272 17.6692 34.1711 17.321C34.8868 16.8857 35.5023 16.5085 36.0176 16.1893C36.5329 15.8702 37.1054 15.4784 37.7352 15.0141C37.7352 14.84 37.7495 14.6659 37.7782 14.4918C37.8068 14.3177 37.8354 14.1727 37.864 14.0566C38.0072 13.4182 38.2505 12.9684 38.594 12.7073C38.9376 12.4171 39.2525 12.272 39.5388 12.272C39.9109 12.272 40.097 12.4606 40.097 12.8379C40.097 13.1571 39.8823 13.5778 39.4529 14.1001L38.2935 15.2318L38.4223 16.407C38.6227 18.09 38.8803 19.7584 39.1952 21.4124C39.5101 23.0374 39.7392 24.6913 39.8823 26.3743H39.9252C41.1276 26.3743 42.0007 26.5484 42.5446 26.8966C43.0886 27.2448 43.3748 27.6511 43.4035 28.1153C43.4035 28.4635 43.3176 28.6377 43.1458 28.6377C43.0027 28.6377 42.9311 28.5071 42.9311 28.2459C42.9311 27.9267 42.745 27.6656 42.3729 27.4625C42.0007 27.2884 41.5713 27.1433 41.0846 27.0272C40.6266 26.9111 40.2401 26.8386 39.9252 26.8096C39.9539 27.0127 39.9682 27.2158 39.9682 27.4189C39.9682 27.6511 39.9682 27.8832 39.9682 28.1153C39.9682 30.2626 39.5531 32.1632 38.7229 33.8172C37.8927 35.5002 36.7619 36.922 35.3305 38.0827C33.8991 39.2434 32.2674 40.1429 30.4352 40.7813C28.603 41.4487 26.6707 41.8404 24.6381 41.9565C24.495 41.9565 24.3375 41.9565 24.1658 41.9565C23.994 41.9855 23.8366 42 23.6934 42ZM32.4534 24.8509C33.0832 24.8509 33.6272 24.6913 34.0852 24.3721C34.5719 24.0239 35.2446 23.3565 36.1035 22.37C36.4756 21.9347 36.8048 21.4849 37.0911 21.0207C37.3774 20.5274 37.6637 19.9616 37.9499 19.3232C37.9213 18.8589 37.8784 18.3946 37.8211 17.9304C37.7925 17.4661 37.7782 17.0163 37.7782 16.5811V15.7106L35.674 17.4081C34.987 17.9594 34.3142 18.5397 33.6558 19.1491C33.026 19.7294 32.4391 20.3968 31.8952 21.1513C31.6948 21.4414 31.5087 21.8041 31.337 22.2394C31.1938 22.6456 31.1223 23.0519 31.1223 23.4581C31.1223 23.8353 31.2225 24.169 31.4228 24.4592C31.6232 24.7203 31.9668 24.8509 32.4534 24.8509ZM23.0922 41.4777C23.5789 41.4777 24.0942 41.4342 24.6381 41.3471C27.1573 40.9699 29.4332 40.1429 31.4658 38.8662C33.527 37.6184 35.1587 35.9645 36.3611 33.9042C37.5921 31.8731 38.2076 29.5227 38.2076 26.8531V26.8096C36.404 26.8676 34.5719 27.1143 32.7111 27.5495C30.8789 28.0138 29.1183 28.6667 27.4293 29.5082C25.7403 30.3497 24.2373 31.3943 22.9205 32.642C21.575 33.9188 20.6016 35.0649 20.0005 36.0805C19.3993 37.0961 19.0987 37.9811 19.0987 38.7356C19.0987 39.6351 19.4708 40.317 20.2152 40.7813C20.9309 41.2456 21.8899 41.4777 23.0922 41.4777Z" fill="white"/>
<path d="M45.3435 26.4614C44.1984 26.4614 43.3826 26.2002 42.8959 25.6779C42.4379 25.1556 42.2088 24.5027 42.2088 23.7193C42.2088 23.255 42.2804 22.7762 42.4235 22.2829C42.5667 21.7896 42.7528 21.2963 42.9818 20.803C42.7814 20.687 42.6812 20.5419 42.6812 20.3678C42.6812 20.1066 42.9818 19.8745 43.583 19.6714C43.8406 19.2942 44.1555 18.7864 44.5277 18.148C44.9285 17.4806 45.3579 16.8132 45.8159 16.1458C46.3026 15.4784 46.8036 14.9126 47.3188 14.4483C47.8341 13.984 48.3351 13.7519 48.8218 13.7519C49.2226 13.7519 49.4802 13.9115 49.5947 14.2307C49.7093 14.2017 49.8667 14.1872 50.0671 14.1872C50.8973 14.1872 51.3124 14.6224 51.3124 15.4929C51.3124 16.1603 51.0834 16.7987 50.6253 17.4081C50.1673 17.9884 49.6234 18.3511 48.9936 18.4962L49.0365 18.7138C49.0365 18.7138 49.1796 18.6993 49.4659 18.6703C49.7522 18.6123 49.9955 18.5687 50.1959 18.5397C50.6826 18.5107 51.2122 18.5107 51.7847 18.5397C52.3573 18.5687 52.7295 18.6993 52.9012 18.9314C52.9585 18.9895 52.9442 19.033 52.8583 19.062C52.801 19.091 52.7438 19.091 52.6865 19.062C52.4575 18.946 52.0853 18.8879 51.57 18.8879C50.883 18.8879 50.0671 18.975 49.1224 19.1491C48.2063 19.3232 47.3618 19.5408 46.5888 19.802C45.8159 20.0341 45.2863 20.2517 45 20.4548C44.7424 20.8611 44.4847 21.3834 44.2271 22.0218C43.9694 22.6311 43.8406 23.226 43.8406 23.8063C43.8406 24.3286 43.9837 24.7784 44.27 25.1556C44.5849 25.5038 45.1432 25.6779 45.9447 25.6779C46.8036 25.6779 47.5908 25.4603 48.3065 25.025C49.0508 24.5898 49.7379 24.053 50.3677 23.4146C50.9975 22.7472 51.5557 22.1233 52.0424 21.543C52.0996 21.4849 52.3 21.2528 52.6436 20.8466C52.9871 20.4403 53.3449 20.0051 53.7171 19.5408C54.1179 19.0475 54.4042 18.6703 54.5759 18.4091C54.5759 18.4091 54.6046 18.4382 54.6618 18.4962C54.7191 18.6123 54.7048 18.7283 54.6189 18.8444C54.2467 19.3087 53.8746 19.802 53.5024 20.3243C53.1302 20.8466 52.7438 21.3544 52.343 21.8477C51.7704 22.5731 51.1263 23.2985 50.4106 24.0239C49.7236 24.7203 48.9649 25.3007 48.1347 25.765C47.3045 26.2292 46.3741 26.4614 45.3435 26.4614ZM45.4294 19.5843C45.9734 19.3812 46.4028 19.2361 46.7177 19.1491C47.0326 19.062 47.3189 18.9605 47.5765 18.8444C47.8341 18.6993 48.0775 18.5397 48.3065 18.3656C48.5641 18.1625 48.8361 17.8868 49.1224 17.5386C49.38 17.2194 49.5947 16.8712 49.7665 16.494C49.9383 16.0878 50.0242 15.7251 50.0242 15.4059C50.0242 15.1157 49.9383 14.8836 49.7665 14.7095C49.5947 14.5354 49.2941 14.6514 48.8647 15.0577C48.4353 15.4349 47.9773 15.9137 47.4906 16.494C47.0326 17.0744 46.6032 17.6547 46.2024 18.235C45.8302 18.8154 45.5726 19.2651 45.4294 19.5843Z" fill="white"/>
<path d="M52.1434 25.8955C52.1434 25.8085 52.172 25.7214 52.2293 25.6344C52.2865 25.5473 52.3295 25.4748 52.3581 25.4168C52.444 25.2136 52.5298 24.967 52.6157 24.6768C52.7302 24.3867 52.8877 24.053 53.0881 23.6757C53.3171 23.2405 53.5604 22.7037 53.8181 22.0653C54.1044 21.4269 54.3763 20.7885 54.634 20.1502C54.8916 19.4828 55.1063 18.9605 55.2781 18.5832C55.3353 18.3801 55.3926 18.1915 55.4499 18.0174C55.5357 17.8433 55.593 17.6692 55.6216 17.4951C55.6502 17.379 55.6646 17.234 55.6646 17.0598C55.6646 16.7697 55.593 16.5375 55.4499 16.3634C55.3067 16.1893 55.0348 16.1023 54.634 16.1023C54.3477 16.1023 54.0185 16.1748 53.6463 16.3199C53.3028 16.436 52.9879 16.5666 52.7016 16.7116C52.7016 16.6536 52.7159 16.5666 52.7446 16.4505C52.8018 16.3344 52.8591 16.2619 52.9163 16.2329C53.0308 16.1748 53.3887 16.0443 53.9898 15.8411C54.591 15.609 55.1493 15.3914 55.6646 15.1882C56.094 15.0141 56.5377 14.782 56.9957 14.4918C57.053 14.4628 57.1818 14.3903 57.3822 14.2742C57.6112 14.1581 57.7544 14.1001 57.8116 14.1001H57.8975C58.1265 14.1001 58.241 14.2597 58.241 14.5789C58.241 14.782 58.1981 15.0432 58.1122 15.3623C58.055 15.6815 57.9548 16.0297 57.8116 16.407C57.554 17.0453 57.2677 17.6692 56.9528 18.2786C56.6665 18.8879 56.4948 19.2651 56.4375 19.4102L55.2351 22.1523C56.4375 20.9336 57.554 19.7584 58.5846 18.6268C59.6152 17.4951 60.6028 16.3779 61.5475 15.2753C62.1201 14.6079 62.8358 14.2742 63.6946 14.2742C64.0381 14.2742 64.3244 14.3322 64.5534 14.4483C64.6966 14.5063 64.7252 14.5644 64.6393 14.6224C64.582 14.6804 64.4962 14.724 64.3817 14.753C63.9809 14.8691 63.5085 15.2608 62.9646 15.9282C62.4207 16.5956 61.9054 17.3935 61.4187 18.3221C60.9607 19.2216 60.6028 20.0921 60.3452 20.9336C60.1161 21.6881 60.0016 22.3845 60.0016 23.0229C60.0016 23.4291 60.0732 23.7628 60.2163 24.0239C60.3595 24.2851 60.5885 24.4157 60.9034 24.4157C61.3614 24.4157 61.9626 24.1545 62.7069 23.6322C63.1077 23.342 63.6087 22.8778 64.2099 22.2394C64.8111 21.572 65.3979 20.8756 65.9705 20.1502C66.543 19.4247 67.0011 18.8444 67.3446 18.4091C67.3446 18.4091 67.3732 18.4382 67.4305 18.4962C67.4877 18.6413 67.4734 18.7573 67.3875 18.8444C67.1871 19.1346 66.9295 19.4973 66.6146 19.9325C66.2997 20.3678 65.9419 20.8321 65.5411 21.3254C65.1403 21.7896 64.7109 22.2684 64.2528 22.7617C63.8234 23.255 63.394 23.6757 62.9646 24.0239C62.5638 24.3721 62.1201 24.6623 61.6334 24.8945C61.1467 25.1266 60.6744 25.2427 60.2163 25.2427C59.5579 25.2427 59.0999 25.0395 58.8422 24.6333C58.5846 24.198 58.4557 23.6902 58.4557 23.1099C58.4557 22.6166 58.513 22.1088 58.6275 21.5865C58.7706 21.0642 58.9138 20.5709 59.0569 20.1066C59.2001 19.6714 59.472 19.062 59.8728 18.2786C58.9854 19.004 58.1265 19.7439 57.2963 20.4984C56.4948 21.2528 55.8506 22.0073 55.364 22.7617C55.1636 23.0519 54.9775 23.4146 54.8057 23.8498C54.634 24.2851 54.4908 24.7058 54.3763 25.1121C54.3477 25.1991 54.2332 25.2862 54.0328 25.3732C53.861 25.4313 53.6606 25.4893 53.4316 25.5473C53.2312 25.5764 53.0165 25.6199 52.7875 25.6779C52.5585 25.7359 52.3438 25.823 52.1434 25.9391V25.8955Z" fill="white"/>
<path d="M69.1877 13.6213C68.9301 13.6213 68.8013 13.4472 68.8013 13.099C68.8013 12.6928 69.016 12.3591 69.4454 12.0979C69.9034 11.8078 70.3901 11.5756 70.9054 11.4015C71.4493 11.2274 71.8501 11.1259 72.1077 11.0968H72.3224C72.4942 11.0968 72.5801 11.1259 72.5801 11.1839C72.5801 11.3 72.3797 11.5176 71.9789 11.8368L70.9483 12.6638C70.7766 12.7798 70.6048 12.8959 70.433 13.012C70.2613 13.128 70.1038 13.2296 69.9607 13.3166C69.6171 13.5198 69.3595 13.6213 69.1877 13.6213ZM66.3965 25.9826C66.0244 25.9826 65.6952 25.881 65.4089 25.6779C65.1512 25.4458 64.9795 25.0831 64.8936 24.5898C64.865 24.3286 64.9508 23.8208 65.1512 23.0664C65.3803 22.2829 65.6665 21.4414 66.0101 20.5419C66.3822 19.6133 66.7401 18.7573 67.0836 17.9739C67.4271 17.1904 67.6848 16.6536 67.8565 16.3634C68.0283 16.1313 68.3718 15.8847 68.8871 15.6235C69.4024 15.3333 69.8175 15.1737 70.1324 15.1447C70.2756 15.0577 70.3471 15.0577 70.3471 15.1447C70.1181 15.4349 69.8175 15.8992 69.4454 16.5375C69.1018 17.1759 68.744 17.9013 68.3718 18.7138C67.9997 19.4973 67.6705 20.2807 67.3842 21.0642C67.0979 21.8477 66.8975 22.5005 66.783 23.0229C66.7544 23.1679 66.7258 23.313 66.6971 23.4581C66.6971 23.6032 66.6971 23.7483 66.6971 23.8934C66.6971 24.7349 66.9405 25.1556 67.4271 25.1556C67.742 25.1556 68.0999 24.967 68.5007 24.5898C69.0446 24.1255 69.5742 23.6322 70.0895 23.1099C70.6048 22.5586 71.1773 21.8767 71.8071 21.0642C71.8071 21.0642 71.8644 21.0932 71.9789 21.1513L72.1077 21.2818C71.9646 21.4559 71.664 21.8041 71.206 22.3264C70.7765 22.8197 70.3042 23.342 69.7889 23.8934C69.3022 24.4157 68.9014 24.8074 68.5865 25.0686C68.2716 25.3297 67.9138 25.5473 67.513 25.7214C67.1409 25.8955 66.7687 25.9826 66.3965 25.9826Z" fill="white"/>
<path d="M74.4423 26.3308C73.7553 26.3308 73.1684 26.0696 72.6817 25.5473C72.2237 25.025 71.9947 24.2126 71.9947 23.1099C71.9947 22.1233 72.2094 21.1367 72.6388 20.1502C73.0682 19.1636 73.6408 18.2786 74.3564 17.4951C75.1008 16.6826 75.9166 16.0733 76.8041 15.667C77.0331 15.58 77.2478 15.5074 77.4482 15.4494C77.6486 15.3914 77.849 15.3623 78.0494 15.3623C78.4788 15.3623 78.851 15.4784 79.1659 15.7106C79.4808 15.9427 79.6382 16.3054 79.6382 16.7987C79.6382 16.9148 79.6239 17.0163 79.5953 17.1034C79.5953 17.1904 79.581 17.292 79.5523 17.4081C79.5237 17.5241 79.4378 17.5967 79.2947 17.6257C79.1802 17.6547 79.1229 17.6112 79.1229 17.4951C79.1802 17.0018 79.08 16.6246 78.8223 16.3634C78.5933 16.0733 78.2927 15.9282 77.9206 15.9282C77.6629 15.9282 77.4196 15.9862 77.1906 16.1023C76.4749 16.4505 75.8451 16.9873 75.3012 17.7127C74.7859 18.4091 74.3851 19.1781 74.0988 20.0196C73.8412 20.8611 73.7123 21.6736 73.7123 22.457C73.741 24.14 74.2992 24.9815 75.387 24.9815C75.9882 24.9815 76.618 24.7349 77.2765 24.2416C77.9349 23.7483 78.5074 23.0664 78.9941 22.1959C79.4808 21.3254 79.8673 20.3968 80.1535 19.4102C80.4398 18.3946 80.5829 17.4806 80.5829 16.6681C80.5829 16.1748 80.5257 15.7251 80.4112 15.3188C80.2967 14.9126 80.0963 14.6079 79.81 14.4048C79.6669 14.2887 79.4378 14.2307 79.1229 14.2307C78.6363 14.2307 78.2641 14.3322 78.0065 14.5354C77.8347 14.6514 77.7345 14.7095 77.7059 14.7095C77.5914 14.7095 77.5341 14.6369 77.5341 14.4918C77.5341 14.3758 77.5914 14.2307 77.7059 14.0566C77.8776 13.7664 78.1496 13.5488 78.5218 13.4037C78.8939 13.2586 79.2804 13.1861 79.6812 13.1861C80.1392 13.1861 80.54 13.2876 80.8835 13.4908C81.6278 13.897 82 14.753 82 16.0588C82 16.9873 81.7996 18.0319 81.3988 19.1926C81.0267 20.3533 80.4971 21.4704 79.81 22.5441C79.1516 23.5887 78.3929 24.4447 77.5341 25.1121C76.5035 25.9246 75.4729 26.3308 74.4423 26.3308Z" fill="white"/>
</g>
<g filter="url(#filter1_d_201_32)">
<path d="M7.02413 27.5495C6.13668 27.5495 5.37805 27.2884 4.74824 26.766C4.11844 26.2728 3.60314 25.6199 3.20236 24.8074C2.80157 23.9949 2.50098 23.1534 2.30059 22.2829C2.1002 21.3834 2 20.5709 2 19.8455C2 19.7294 2.01431 19.5843 2.04294 19.4102C2.07157 19.2071 2.15745 19.1056 2.30059 19.1056C2.35784 19.1056 2.38647 19.1491 2.38647 19.2361C2.38647 19.4683 2.4151 19.7294 2.47235 20.0196C2.52961 20.2807 2.58686 20.5419 2.64412 20.803C2.78726 21.4704 3.01628 22.1378 3.33118 22.8052C3.67471 23.4726 4.11844 24.0239 4.66236 24.4592C5.20628 24.8945 5.86472 25.1121 6.63766 25.1121C7.32472 25.1121 7.94021 24.967 8.48414 24.6768C9.02806 24.3867 9.51473 23.9804 9.94414 23.4581C10.8602 22.3264 11.6618 20.9481 12.3489 19.3232C13.0645 17.6692 13.7087 15.9717 14.2812 14.2307C14.8538 12.4897 15.3547 10.9227 15.7842 9.52992C15.8128 9.44287 15.8844 9.22524 15.9989 8.87704C16.1134 8.49982 16.2279 8.13711 16.3424 7.7889C16.4569 7.41168 16.5142 7.19405 16.5142 7.13602C16.5428 6.61371 16.5714 6.12042 16.6 5.65615C16.6287 5.16286 16.8434 4.7276 17.2442 4.35038C16.2136 4.69859 15.1687 5.04679 14.1094 5.39499C13.0789 5.71418 12.0626 6.0769 11.0606 6.48313C10.4308 6.74429 9.87257 7.107 9.38591 7.57127C8.89924 8.03555 8.6559 8.6449 8.6559 9.39935C8.6559 9.97969 8.78473 10.5455 9.04238 11.0968C9.32865 11.6482 9.60061 12.185 9.85826 12.7073C10.1159 13.2296 10.2447 13.7809 10.2447 14.3613C10.2447 14.9416 10.03 15.4784 9.60061 15.9717C9.19983 16.465 8.69884 16.7116 8.09767 16.7116C7.98316 16.7116 7.81139 16.6826 7.58237 16.6246C7.35335 16.5666 7.23884 16.4795 7.23884 16.3634C7.23884 16.2764 7.28178 16.2329 7.36766 16.2329C7.39629 16.2329 7.43923 16.2619 7.49649 16.3199C7.55374 16.3489 7.62531 16.3634 7.71119 16.3634C8.05472 16.3634 8.32669 16.2038 8.52708 15.8847C8.7561 15.5365 8.92787 15.1592 9.04238 14.753C9.15689 14.3468 9.21414 14.0131 9.21414 13.7519C9.21414 13.0845 9.05669 12.4606 8.74179 11.8803C8.45551 11.2709 8.15492 10.6761 7.84002 10.0958C7.55374 9.51542 7.41061 8.92057 7.41061 8.31121C7.41061 7.52775 7.69688 6.90388 8.26943 6.43961C8.84198 5.97534 9.5863 5.61262 10.5024 5.35147C11.4185 5.0613 12.3775 4.82916 13.3794 4.65506C14.3814 4.48096 15.3261 4.30685 16.2136 4.13275C17.1297 3.92963 17.8453 3.66848 18.3606 3.34929C18.561 3.23323 18.833 2.98658 19.1765 2.60936C19.5201 2.20312 19.7491 2 19.8636 2C19.9495 2 19.9924 2.08705 19.9924 2.26115C19.9924 2.49329 19.9208 2.81248 19.7777 3.21872C19.6346 3.59594 19.4771 3.8716 19.3053 4.0457C18.9618 4.42292 18.6899 4.82916 18.4895 5.26442C18.2891 5.69967 18.0887 6.16395 17.8883 6.65724C17.602 7.38266 17.33 8.1226 17.0724 8.87704C16.8148 9.63148 16.5571 10.3859 16.2995 11.1404C15.641 12.9684 14.9969 14.811 14.3671 16.6681C13.7659 18.4962 13.0789 20.3098 12.3059 22.1088C12.0196 22.8052 11.6189 23.5742 11.1036 24.4157C10.6169 25.2572 10.03 25.9826 9.34296 26.5919C8.6559 27.2303 7.88296 27.5495 7.02413 27.5495Z" fill="white"/>
<path d="M17.1697 25.8955C17.1697 25.8085 17.1983 25.7214 17.2556 25.6344C17.3128 25.5473 17.3558 25.4748 17.3844 25.4168C17.4703 25.2136 17.5562 24.967 17.642 24.6768C17.7566 24.3867 17.914 24.053 18.1144 23.6757C18.3434 23.2405 18.5868 22.7037 18.8444 22.0653C19.1307 21.4269 19.4026 20.7885 19.6603 20.1502C19.9179 19.4828 20.1326 18.9605 20.3044 18.5832C20.3617 18.3801 20.4189 18.1915 20.4762 18.0174C20.5621 17.8433 20.6193 17.6692 20.6479 17.4951C20.6766 17.379 20.6909 17.234 20.6909 17.0598C20.6909 16.7697 20.6193 16.5375 20.4762 16.3634C20.333 16.1893 20.0611 16.1023 19.6603 16.1023C19.374 16.1023 19.0448 16.1748 18.6726 16.3199C18.3291 16.436 18.0142 16.5666 17.7279 16.7116C17.7279 16.6536 17.7422 16.5666 17.7709 16.4505C17.8281 16.3344 17.8854 16.2619 17.9426 16.2329C18.0571 16.1748 18.415 16.0443 19.0162 15.8411C19.6173 15.609 20.1756 15.3914 20.6909 15.1882C21.1203 15.0141 21.564 14.782 22.0221 14.4918C22.0793 14.4628 22.2081 14.3903 22.4085 14.2742C22.6375 14.1581 22.7807 14.1001 22.8379 14.1001H22.9238C23.1528 14.1001 23.2674 14.2597 23.2674 14.5789C23.2674 14.782 23.2244 15.0432 23.1385 15.3623C23.0813 15.6815 22.9811 16.0297 22.8379 16.407C22.5803 17.0453 22.294 17.6692 21.9791 18.2786C21.6928 18.8879 21.5211 19.2651 21.4638 19.4102L20.2615 22.1523C21.4638 20.9336 22.5803 19.7584 23.6109 18.6268C24.6415 17.4951 25.6291 16.3779 26.5738 15.2753C27.1464 14.6079 27.8621 14.2742 28.7209 14.2742C29.0644 14.2742 29.3507 14.3322 29.5797 14.4483C29.7229 14.5063 29.7515 14.5644 29.6656 14.6224C29.6084 14.6804 29.5225 14.724 29.408 14.753C29.0072 14.8691 28.5348 15.2608 27.9909 15.9282C27.447 16.5956 26.9317 17.3935 26.445 18.3221C25.987 19.2216 25.6291 20.0921 25.3715 20.9336C25.1425 21.6881 25.0279 22.3845 25.0279 23.0229C25.0279 23.4291 25.0995 23.7628 25.2427 24.0239C25.3858 24.2851 25.6148 24.4157 25.9297 24.4157C26.3878 24.4157 26.9889 24.1545 27.7333 23.6322C28.134 23.342 28.635 22.8778 29.2362 22.2394C29.8374 21.572 30.4242 20.8756 30.9968 20.1502C31.5693 19.4247 32.0274 18.8444 32.3709 18.4091C32.3709 18.4091 32.3995 18.4382 32.4568 18.4962C32.5141 18.6413 32.4997 18.7573 32.4139 18.8444C32.2135 19.1346 31.9558 19.4973 31.6409 19.9325C31.326 20.3678 30.9682 20.8321 30.5674 21.3254C30.1666 21.7896 29.7372 22.2684 29.2791 22.7617C28.8497 23.255 28.4203 23.6757 27.9909 24.0239C27.5901 24.3721 27.1464 24.6623 26.6597 24.8945C26.173 25.1266 25.7007 25.2427 25.2427 25.2427C24.5842 25.2427 24.1262 25.0395 23.8685 24.6333C23.6109 24.198 23.4821 23.6902 23.4821 23.1099C23.4821 22.6166 23.5393 22.1088 23.6538 21.5865C23.797 21.0642 23.9401 20.5709 24.0832 20.1066C24.2264 19.6714 24.4983 19.062 24.8991 18.2786C24.0117 19.004 23.1528 19.7439 22.3226 20.4984C21.5211 21.2528 20.877 22.0073 20.3903 22.7617C20.1899 23.0519 20.0038 23.4146 19.832 23.8498C19.6603 24.2851 19.5171 24.7058 19.4026 25.1121C19.374 25.1991 19.2595 25.2862 19.0591 25.3732C18.8873 25.4313 18.6869 25.4893 18.4579 25.5473C18.2575 25.5764 18.0428 25.6199 17.8138 25.6779C17.5848 25.7359 17.3701 25.823 17.1697 25.9391V25.8955Z" fill="white"/>
<path d="M23.6934 42C21.9471 42 20.5014 41.6663 19.3563 40.9989C18.1826 40.3605 17.5957 39.4465 17.5957 38.2568C17.5957 37.5024 17.882 36.6318 18.4546 35.6453C18.9985 34.6587 19.886 33.5851 21.1169 32.4244C22.4624 31.1476 24.1085 30.0595 26.0552 29.16C28.0019 28.2894 30.0344 27.6075 32.1528 27.1143C34.2999 26.65 36.3182 26.3888 38.2076 26.3308C38.2076 25.2862 38.1789 24.2416 38.1217 23.197C38.0931 22.1233 38.0501 21.0642 37.9929 20.0196C37.4776 21.0642 36.9623 21.9057 36.447 22.5441C35.7313 23.4436 34.9583 24.1545 34.1282 24.6768C33.3266 25.1991 32.568 25.5473 31.8523 25.7214C31.3942 25.8375 30.9505 25.8955 30.5211 25.8955C29.8913 25.8955 29.4475 25.7505 29.1899 25.4603C28.9323 25.1701 28.8034 24.7929 28.8034 24.3286C28.8034 23.6032 29.0181 22.8052 29.4475 21.9347C29.9056 21.0642 30.4925 20.2662 31.2081 19.5408C31.6948 19.0475 32.1672 18.6413 32.6252 18.3221C33.1119 18.0029 33.6272 17.6692 34.1711 17.321C34.8868 16.8857 35.5023 16.5085 36.0176 16.1893C36.5329 15.8702 37.1054 15.4784 37.7352 15.0141C37.7352 14.84 37.7495 14.6659 37.7782 14.4918C37.8068 14.3177 37.8354 14.1727 37.864 14.0566C38.0072 13.4182 38.2505 12.9684 38.594 12.7073C38.9376 12.4171 39.2525 12.272 39.5388 12.272C39.9109 12.272 40.097 12.4606 40.097 12.8379C40.097 13.1571 39.8823 13.5778 39.4529 14.1001L38.2935 15.2318L38.4223 16.407C38.6227 18.09 38.8803 19.7584 39.1952 21.4124C39.5101 23.0374 39.7392 24.6913 39.8823 26.3743H39.9252C41.1276 26.3743 42.0007 26.5484 42.5446 26.8966C43.0886 27.2448 43.3748 27.6511 43.4035 28.1153C43.4035 28.4635 43.3176 28.6377 43.1458 28.6377C43.0027 28.6377 42.9311 28.5071 42.9311 28.2459C42.9311 27.9267 42.745 27.6656 42.3729 27.4625C42.0007 27.2884 41.5713 27.1433 41.0846 27.0272C40.6266 26.9111 40.2401 26.8386 39.9252 26.8096C39.9539 27.0127 39.9682 27.2158 39.9682 27.4189C39.9682 27.6511 39.9682 27.8832 39.9682 28.1153C39.9682 30.2626 39.5531 32.1632 38.7229 33.8172C37.8927 35.5002 36.7619 36.922 35.3305 38.0827C33.8991 39.2434 32.2674 40.1429 30.4352 40.7813C28.603 41.4487 26.6707 41.8404 24.6381 41.9565C24.495 41.9565 24.3375 41.9565 24.1658 41.9565C23.994 41.9855 23.8366 42 23.6934 42ZM32.4534 24.8509C33.0832 24.8509 33.6272 24.6913 34.0852 24.3721C34.5719 24.0239 35.2446 23.3565 36.1035 22.37C36.4756 21.9347 36.8048 21.4849 37.0911 21.0207C37.3774 20.5274 37.6637 19.9616 37.9499 19.3232C37.9213 18.8589 37.8784 18.3946 37.8211 17.9304C37.7925 17.4661 37.7782 17.0163 37.7782 16.5811V15.7106L35.674 17.4081C34.987 17.9594 34.3142 18.5397 33.6558 19.1491C33.026 19.7294 32.4391 20.3968 31.8952 21.1513C31.6948 21.4414 31.5087 21.8041 31.337 22.2394C31.1938 22.6456 31.1223 23.0519 31.1223 23.4581C31.1223 23.8353 31.2225 24.169 31.4228 24.4592C31.6232 24.7203 31.9668 24.8509 32.4534 24.8509ZM23.0922 41.4777C23.5789 41.4777 24.0942 41.4342 24.6381 41.3471C27.1573 40.9699 29.4332 40.1429 31.4658 38.8662C33.527 37.6184 35.1587 35.9645 36.3611 33.9042C37.5921 31.8731 38.2076 29.5227 38.2076 26.8531V26.8096C36.404 26.8676 34.5719 27.1143 32.7111 27.5495C30.8789 28.0138 29.1183 28.6667 27.4293 29.5082C25.7403 30.3497 24.2373 31.3943 22.9205 32.642C21.575 33.9188 20.6016 35.0649 20.0005 36.0805C19.3993 37.0961 19.0987 37.9811 19.0987 38.7356C19.0987 39.6351 19.4708 40.317 20.2152 40.7813C20.9309 41.2456 21.8899 41.4777 23.0922 41.4777Z" fill="white"/>
<path d="M45.3435 26.4614C44.1984 26.4614 43.3826 26.2002 42.8959 25.6779C42.4379 25.1556 42.2088 24.5027 42.2088 23.7193C42.2088 23.255 42.2804 22.7762 42.4235 22.2829C42.5667 21.7896 42.7528 21.2963 42.9818 20.803C42.7814 20.687 42.6812 20.5419 42.6812 20.3678C42.6812 20.1066 42.9818 19.8745 43.583 19.6714C43.8406 19.2942 44.1555 18.7864 44.5277 18.148C44.9285 17.4806 45.3579 16.8132 45.8159 16.1458C46.3026 15.4784 46.8036 14.9126 47.3188 14.4483C47.8341 13.984 48.3351 13.7519 48.8218 13.7519C49.2226 13.7519 49.4802 13.9115 49.5947 14.2307C49.7093 14.2017 49.8667 14.1872 50.0671 14.1872C50.8973 14.1872 51.3124 14.6224 51.3124 15.4929C51.3124 16.1603 51.0834 16.7987 50.6253 17.4081C50.1673 17.9884 49.6234 18.3511 48.9936 18.4962L49.0365 18.7138C49.0365 18.7138 49.1796 18.6993 49.4659 18.6703C49.7522 18.6123 49.9955 18.5687 50.1959 18.5397C50.6826 18.5107 51.2122 18.5107 51.7847 18.5397C52.3573 18.5687 52.7295 18.6993 52.9012 18.9314C52.9585 18.9895 52.9442 19.033 52.8583 19.062C52.801 19.091 52.7438 19.091 52.6865 19.062C52.4575 18.946 52.0853 18.8879 51.57 18.8879C50.883 18.8879 50.0671 18.975 49.1224 19.1491C48.2063 19.3232 47.3618 19.5408 46.5888 19.802C45.8159 20.0341 45.2863 20.2517 45 20.4548C44.7424 20.8611 44.4847 21.3834 44.2271 22.0218C43.9694 22.6311 43.8406 23.226 43.8406 23.8063C43.8406 24.3286 43.9837 24.7784 44.27 25.1556C44.5849 25.5038 45.1432 25.6779 45.9447 25.6779C46.8036 25.6779 47.5908 25.4603 48.3065 25.025C49.0508 24.5898 49.7379 24.053 50.3677 23.4146C50.9975 22.7472 51.5557 22.1233 52.0424 21.543C52.0996 21.4849 52.3 21.2528 52.6436 20.8466C52.9871 20.4403 53.3449 20.0051 53.7171 19.5408C54.1179 19.0475 54.4042 18.6703 54.5759 18.4091C54.5759 18.4091 54.6046 18.4382 54.6618 18.4962C54.7191 18.6123 54.7048 18.7283 54.6189 18.8444C54.2467 19.3087 53.8746 19.802 53.5024 20.3243C53.1302 20.8466 52.7438 21.3544 52.343 21.8477C51.7704 22.5731 51.1263 23.2985 50.4106 24.0239C49.7236 24.7203 48.9649 25.3007 48.1347 25.765C47.3045 26.2292 46.3741 26.4614 45.3435 26.4614ZM45.4294 19.5843C45.9734 19.3812 46.4028 19.2361 46.7177 19.1491C47.0326 19.062 47.3189 18.9605 47.5765 18.8444C47.8341 18.6993 48.0775 18.5397 48.3065 18.3656C48.5641 18.1625 48.8361 17.8868 49.1224 17.5386C49.38 17.2194 49.5947 16.8712 49.7665 16.494C49.9383 16.0878 50.0242 15.7251 50.0242 15.4059C50.0242 15.1157 49.9383 14.8836 49.7665 14.7095C49.5947 14.5354 49.2941 14.6514 48.8647 15.0577C48.4353 15.4349 47.9773 15.9137 47.4906 16.494C47.0326 17.0744 46.6032 17.6547 46.2024 18.235C45.8302 18.8154 45.5726 19.2651 45.4294 19.5843Z" fill="white"/>
<path d="M52.1434 25.8955C52.1434 25.8085 52.172 25.7214 52.2293 25.6344C52.2865 25.5473 52.3295 25.4748 52.3581 25.4168C52.444 25.2136 52.5298 24.967 52.6157 24.6768C52.7302 24.3867 52.8877 24.053 53.0881 23.6757C53.3171 23.2405 53.5604 22.7037 53.8181 22.0653C54.1044 21.4269 54.3763 20.7885 54.634 20.1502C54.8916 19.4828 55.1063 18.9605 55.2781 18.5832C55.3353 18.3801 55.3926 18.1915 55.4499 18.0174C55.5357 17.8433 55.593 17.6692 55.6216 17.4951C55.6502 17.379 55.6646 17.234 55.6646 17.0598C55.6646 16.7697 55.593 16.5375 55.4499 16.3634C55.3067 16.1893 55.0348 16.1023 54.634 16.1023C54.3477 16.1023 54.0185 16.1748 53.6463 16.3199C53.3028 16.436 52.9879 16.5666 52.7016 16.7116C52.7016 16.6536 52.7159 16.5666 52.7446 16.4505C52.8018 16.3344 52.8591 16.2619 52.9163 16.2329C53.0308 16.1748 53.3887 16.0443 53.9898 15.8411C54.591 15.609 55.1493 15.3914 55.6646 15.1882C56.094 15.0141 56.5377 14.782 56.9957 14.4918C57.053 14.4628 57.1818 14.3903 57.3822 14.2742C57.6112 14.1581 57.7544 14.1001 57.8116 14.1001H57.8975C58.1265 14.1001 58.241 14.2597 58.241 14.5789C58.241 14.782 58.1981 15.0432 58.1122 15.3623C58.055 15.6815 57.9548 16.0297 57.8116 16.407C57.554 17.0453 57.2677 17.6692 56.9528 18.2786C56.6665 18.8879 56.4948 19.2651 56.4375 19.4102L55.2351 22.1523C56.4375 20.9336 57.554 19.7584 58.5846 18.6268C59.6152 17.4951 60.6028 16.3779 61.5475 15.2753C62.1201 14.6079 62.8358 14.2742 63.6946 14.2742C64.0381 14.2742 64.3244 14.3322 64.5534 14.4483C64.6966 14.5063 64.7252 14.5644 64.6393 14.6224C64.582 14.6804 64.4962 14.724 64.3817 14.753C63.9809 14.8691 63.5085 15.2608 62.9646 15.9282C62.4207 16.5956 61.9054 17.3935 61.4187 18.3221C60.9607 19.2216 60.6028 20.0921 60.3452 20.9336C60.1161 21.6881 60.0016 22.3845 60.0016 23.0229C60.0016 23.4291 60.0732 23.7628 60.2163 24.0239C60.3595 24.2851 60.5885 24.4157 60.9034 24.4157C61.3614 24.4157 61.9626 24.1545 62.7069 23.6322C63.1077 23.342 63.6087 22.8778 64.2099 22.2394C64.8111 21.572 65.3979 20.8756 65.9705 20.1502C66.543 19.4247 67.0011 18.8444 67.3446 18.4091C67.3446 18.4091 67.3732 18.4382 67.4305 18.4962C67.4877 18.6413 67.4734 18.7573 67.3875 18.8444C67.1871 19.1346 66.9295 19.4973 66.6146 19.9325C66.2997 20.3678 65.9419 20.8321 65.5411 21.3254C65.1403 21.7896 64.7109 22.2684 64.2528 22.7617C63.8234 23.255 63.394 23.6757 62.9646 24.0239C62.5638 24.3721 62.1201 24.6623 61.6334 24.8945C61.1467 25.1266 60.6744 25.2427 60.2163 25.2427C59.5579 25.2427 59.0999 25.0395 58.8422 24.6333C58.5846 24.198 58.4557 23.6902 58.4557 23.1099C58.4557 22.6166 58.513 22.1088 58.6275 21.5865C58.7706 21.0642 58.9138 20.5709 59.0569 20.1066C59.2001 19.6714 59.472 19.062 59.8728 18.2786C58.9854 19.004 58.1265 19.7439 57.2963 20.4984C56.4948 21.2528 55.8506 22.0073 55.364 22.7617C55.1636 23.0519 54.9775 23.4146 54.8057 23.8498C54.634 24.2851 54.4908 24.7058 54.3763 25.1121C54.3477 25.1991 54.2332 25.2862 54.0328 25.3732C53.861 25.4313 53.6606 25.4893 53.4316 25.5473C53.2312 25.5764 53.0165 25.6199 52.7875 25.6779C52.5585 25.7359 52.3438 25.823 52.1434 25.9391V25.8955Z" fill="white"/>
<path d="M69.1877 13.6213C68.9301 13.6213 68.8013 13.4472 68.8013 13.099C68.8013 12.6928 69.016 12.3591 69.4454 12.0979C69.9034 11.8078 70.3901 11.5756 70.9054 11.4015C71.4493 11.2274 71.8501 11.1259 72.1077 11.0968H72.3224C72.4942 11.0968 72.5801 11.1259 72.5801 11.1839C72.5801 11.3 72.3797 11.5176 71.9789 11.8368L70.9483 12.6638C70.7766 12.7798 70.6048 12.8959 70.433 13.012C70.2613 13.128 70.1038 13.2296 69.9607 13.3166C69.6171 13.5198 69.3595 13.6213 69.1877 13.6213ZM66.3965 25.9826C66.0244 25.9826 65.6952 25.881 65.4089 25.6779C65.1512 25.4458 64.9795 25.0831 64.8936 24.5898C64.865 24.3286 64.9508 23.8208 65.1512 23.0664C65.3803 22.2829 65.6665 21.4414 66.0101 20.5419C66.3822 19.6133 66.7401 18.7573 67.0836 17.9739C67.4271 17.1904 67.6848 16.6536 67.8565 16.3634C68.0283 16.1313 68.3718 15.8847 68.8871 15.6235C69.4024 15.3333 69.8175 15.1737 70.1324 15.1447C70.2756 15.0577 70.3471 15.0577 70.3471 15.1447C70.1181 15.4349 69.8175 15.8992 69.4454 16.5375C69.1018 17.1759 68.744 17.9013 68.3718 18.7138C67.9997 19.4973 67.6705 20.2807 67.3842 21.0642C67.0979 21.8477 66.8975 22.5005 66.783 23.0229C66.7544 23.1679 66.7258 23.313 66.6971 23.4581C66.6971 23.6032 66.6971 23.7483 66.6971 23.8934C66.6971 24.7349 66.9405 25.1556 67.4271 25.1556C67.742 25.1556 68.0999 24.967 68.5007 24.5898C69.0446 24.1255 69.5742 23.6322 70.0895 23.1099C70.6048 22.5586 71.1773 21.8767 71.8071 21.0642C71.8071 21.0642 71.8644 21.0932 71.9789 21.1513L72.1077 21.2818C71.9646 21.4559 71.664 21.8041 71.206 22.3264C70.7765 22.8197 70.3042 23.342 69.7889 23.8934C69.3022 24.4157 68.9014 24.8074 68.5865 25.0686C68.2716 25.3297 67.9138 25.5473 67.513 25.7214C67.1409 25.8955 66.7687 25.9826 66.3965 25.9826Z" fill="white"/>
<path d="M74.4423 26.3308C73.7553 26.3308 73.1684 26.0696 72.6817 25.5473C72.2237 25.025 71.9947 24.2126 71.9947 23.1099C71.9947 22.1233 72.2094 21.1367 72.6388 20.1502C73.0682 19.1636 73.6408 18.2786 74.3564 17.4951C75.1008 16.6826 75.9166 16.0733 76.8041 15.667C77.0331 15.58 77.2478 15.5074 77.4482 15.4494C77.6486 15.3914 77.849 15.3623 78.0494 15.3623C78.4788 15.3623 78.851 15.4784 79.1659 15.7106C79.4808 15.9427 79.6382 16.3054 79.6382 16.7987C79.6382 16.9148 79.6239 17.0163 79.5953 17.1034C79.5953 17.1904 79.581 17.292 79.5523 17.4081C79.5237 17.5241 79.4378 17.5967 79.2947 17.6257C79.1802 17.6547 79.1229 17.6112 79.1229 17.4951C79.1802 17.0018 79.08 16.6246 78.8223 16.3634C78.5933 16.0733 78.2927 15.9282 77.9206 15.9282C77.6629 15.9282 77.4196 15.9862 77.1906 16.1023C76.4749 16.4505 75.8451 16.9873 75.3012 17.7127C74.7859 18.4091 74.3851 19.1781 74.0988 20.0196C73.8412 20.8611 73.7123 21.6736 73.7123 22.457C73.741 24.14 74.2992 24.9815 75.387 24.9815C75.9882 24.9815 76.618 24.7349 77.2765 24.2416C77.9349 23.7483 78.5074 23.0664 78.9941 22.1959C79.4808 21.3254 79.8673 20.3968 80.1535 19.4102C80.4398 18.3946 80.5829 17.4806 80.5829 16.6681C80.5829 16.1748 80.5257 15.7251 80.4112 15.3188C80.2967 14.9126 80.0963 14.6079 79.81 14.4048C79.6669 14.2887 79.4378 14.2307 79.1229 14.2307C78.6363 14.2307 78.2641 14.3322 78.0065 14.5354C77.8347 14.6514 77.7345 14.7095 77.7059 14.7095C77.5914 14.7095 77.5341 14.6369 77.5341 14.4918C77.5341 14.3758 77.5914 14.2307 77.7059 14.0566C77.8776 13.7664 78.1496 13.5488 78.5218 13.4037C78.8939 13.2586 79.2804 13.1861 79.6812 13.1861C80.1392 13.1861 80.54 13.2876 80.8835 13.4908C81.6278 13.897 82 14.753 82 16.0588C82 16.9873 81.7996 18.0319 81.3988 19.1926C81.0267 20.3533 80.4971 21.4704 79.81 22.5441C79.1516 23.5887 78.3929 24.4447 77.5341 25.1121C76.5035 25.9246 75.4729 26.3308 74.4423 26.3308Z" fill="white"/>
</g>
<defs>
<filter id="filter0_f_201_32" x="0" y="0" width="84" height="44" filterUnits="userSpaceOnUse" color-interpolation-filters="sRGB">
<feFlood flood-opacity="0" result="BackgroundImageFix"/>
<feBlend mode="normal" in="SourceGraphic" in2="BackgroundImageFix" result="shape"/>
<feGaussianBlur stdDeviation="1" result="effect1_foregroundBlur_201_32"/>
</filter>
<filter id="filter1_d_201_32" x="1.8" y="1.8" width="80.4" height="40.4" filterUnits="userSpaceOnUse" color-interpolation-filters="sRGB">
<feFlood flood-opacity="0" result="BackgroundImageFix"/>
<feColorMatrix in="SourceAlpha" type="matrix" values="0 0 0 0 0 0 0 0 0 0 0 0 0 0 0 0 0 0 127 0" result="hardAlpha"/>
<feOffset/>
<feGaussianBlur stdDeviation="0.1"/>
<feComposite in2="hardAlpha" operator="out"/>
<feColorMatrix type="matrix" values="0 0 0 0 0 0 0 0 0 0 0 0 0 0 0 0 0 0 0.5 0"/>
<feBlend mode="normal" in2="BackgroundImageFix" result="effect1_dropShadow_201_32"/>
<feBlend mode="normal" in="SourceGraphic" in2="effect1_dropShadow_201_32" result="shape"/>
</filter>
</defs>
</svg>
